<svg xmlns="http://www.w3.org/2000/svg" viewBox="0 0 144 188"><defs><style>.cls-1{fill:#468baf;}</style></defs><title>Asset 21</title><g id="Layer_2" data-name="Layer 2"><g id="Layer_1-2" data-name="Layer 1"><path class="cls-1" d="M132,0H12A12,12,0,0,0,0,12V176a12,12,0,0,0,12,12H132a12,12,0,0,0,12-12V12A12,12,0,0,0,132,0ZM109.1,73.54H35.47a5.87,5.87,0,1,1,0-11.73H109.1a5.87,5.87,0,0,1,0,11.73ZM29.6,51.06c0-3.24,2-5.87,4.5-5.87H90.51C93,45.19,95,47.82,95,51.06s-2,5.87-4.49,5.87H34.1C31.62,56.93,29.6,54.3,29.6,51.06Zm79.5-11.34H35.47a5.87,5.87,0,1,1,0-11.74H109.1a5.87,5.87,0,0,1,0,11.74Z"/></g></g></svg>