<svg xmlns="http://www.w3.org/2000/svg" viewBox="0 0 185.04 168.13"><defs><style>.cls-1{fill:#468baf;}</style></defs><title>Asset 18</title><g id="Layer_2" data-name="Layer 2"><g id="Capa_1" data-name="Capa 1"><path class="cls-1" d="M55.29,106.59l2.36-.4c.31-.06.62-.1.94-.15a195.24,195.24,0,0,1,29.5-2h9.74c6.24,0,12.33.25,18.2.77,3.19.28,6.32.63,9.37,1.09,1.47.21,2.92.44,4.35.7A103,103,0,0,1,149,111.85a69.57,69.57,0,0,1,10.23,4.93C175.19,126.19,185,141.68,185,166a2.17,2.17,0,0,1-2.16,2.17H2.16A2.17,2.17,0,0,1,0,166C0,129,22.88,112.39,55.29,106.59Z"/><circle class="cls-1" cx="92.52" cy="44.43" r="44.43" transform="translate(19.97 117.03) rotate(-70.67)"/></g></g></svg>