<svg xmlns="http://www.w3.org/2000/svg" viewBox="0 0 363.95 404.53"><defs><style>.cls-1{fill:#468baf;}</style></defs><title>Asset 22</title><g id="Layer_2" data-name="Layer 2"><g id="Layer_1-2" data-name="Layer 1"><path class="cls-1" d="M361.77,356.66l-99.08-122A146.31,146.31,0,0,0,259.74,54C208.9-8.61,116.62-18.17,54,32.67a146.32,146.32,0,0,0,92.47,259.75A144.83,144.83,0,0,0,208,278.76l99.25,122.18a9.71,9.71,0,0,0,13.66,1.42l39.45-32.05a9.68,9.68,0,0,0,1.41-13.65Zm-298.61-143a107.15,107.15,0,1,1,83.18,39.51A106.3,106.3,0,0,1,63.16,213.66Z"/></g></g></svg>