<svg xmlns="http://www.w3.org/2000/svg" viewBox="0 0 193.31 130.73"><defs><style>.cls-1{fill:#468baf;}</style></defs><title>Asset 20</title><g id="Layer_2" data-name="Layer 2"><g id="Layer_1-2" data-name="Layer 1"><path class="cls-1" d="M193.31,92.12c0,21.17-18.08,38.49-40.31,38.6H108.72a3.88,3.88,0,0,1-3.88-3.88,2.35,2.35,0,0,1,0-.26V94.94a3.88,3.88,0,0,1,3.88-3.88h5.43L97.26,70.25c-.41-.5-.8-.5-1.2,0L79.15,91.06h5.43a3.88,3.88,0,0,1,3.88,3.88v31.62s0,.06,0,.09a3.88,3.88,0,0,1-3.88,4.08H42.19a42.45,42.45,0,0,1,.26-84.89A41.8,41.8,0,0,1,48,46.2a50.32,50.32,0,0,1,100.47,4.12q0,1.66-.12,3.42a40.87,40.87,0,0,1,4.41-.24C175.13,53.5,193.31,70.82,193.31,92.12Z"/></g></g></svg>